<svg xmlns="http://www.w3.org/2000/svg" version="1.1" xmlnsXlink="http://www.w3.org/1999/xlink" xmlnsSvgjs="http://svgjs.com/svgjs" width="1440" height="560" preserveAspectRatio="none" viewBox="0 0 1440 560">
    <g mask="url(&quot;#SvgjsMask1021&quot;)" fill="none">
        <rect width="1440" height="560" x="0" y="0" fill="rgba(19, 0, 42, 1)"></rect>
        <g transform="translate(0, 0)" strokeLinecap="round">
            <path d="M260 247.59 L260 262.59000000000003" strokeWidth="15" stroke="rgba(255, 201, 2, 1)"></path>
            <path d="M260 285.09000000000003 L260 312.42" strokeWidth="15" stroke="rgba(255, 201, 2, 1)"></path>
            <path d="M280 107.25 L280 212.25" strokeWidth="15" stroke="rgba(255, 201, 2, 1)"></path>
            <path d="M280 234.75 L280 384.75" strokeWidth="15" stroke="rgba(2, 177, 255, 1)"></path>
            <path d="M280 407.25 L280 452.75" strokeWidth="15" stroke="rgba(2, 177, 255, 1)"></path>
            <path d="M300 225.53 L300 240.53" strokeWidth="15" stroke="rgba(0, 255, 255, 1)"></path>
            <path d="M300 263.03 L300 293.03" strokeWidth="15" stroke="rgba(2, 177, 255, 1)"></path>
            <path d="M300 315.53 L300 334.47" strokeWidth="15" stroke="rgba(0, 255, 255, 1)"></path>
            <path d="M320 155.99 L320 230.99" strokeWidth="15" stroke="rgba(0, 255, 255, 1)"></path>
            <path d="M320 253.49 L320 268.49" strokeWidth="15" stroke="rgba(255, 201, 2, 1)"></path>
            <path d="M320 290.99 L320 404.01" strokeWidth="15" stroke="rgba(255, 165, 0, 1)"></path>
            <path d="M340 205.58 L340 250.58" strokeWidth="15" stroke="rgba(0, 255, 255, 1)"></path>
            <path d="M340 273.08000000000004 L340 303.08000000000004" strokeWidth="15" stroke="rgba(0, 255, 255, 1)"></path>
            <path d="M340 325.58000000000004 L340 354.42" strokeWidth="15" stroke="rgba(255, 201, 2, 1)"></path>
            <path d="M360 241.47 L360 256.47" strokeWidth="15" stroke="rgba(0, 255, 255, 1)"></path>
            <path d="M360 278.97 L360 318.53" strokeWidth="15" stroke="rgba(2, 177, 255, 1)"></path>
            <path d="M380 181.67 L380 256.66999999999996" strokeWidth="15" stroke="rgba(0, 255, 255, 1)"></path>
            <path d="M380 279.16999999999996 L380 339.16999999999996" strokeWidth="15" stroke="rgba(2, 177, 255, 1)"></path>
            <path d="M380 361.66999999999996 L380 378.33" strokeWidth="15" stroke="rgba(0, 255, 255, 1)"></path>
            <path d="M400 169.31 L400 289.31" strokeWidth="15" stroke="rgba(255, 201, 2, 1)"></path>
            <path d="M400 311.81 L400 341.81" strokeWidth="15" stroke="rgba(0, 255, 255, 1)"></path>
            <path d="M400 364.31 L400 390.69" strokeWidth="15" stroke="rgba(2, 177, 255, 1)"></path>
            <path d="M420 191.67 L420 236.67" strokeWidth="15" stroke="rgba(0, 255, 255, 1)"></path>
            <path d="M420 259.16999999999996 L420 368.33" strokeWidth="15" stroke="rgba(255, 165, 0, 1)"></path>
            <path d="M440 260.13 L440 299.87" strokeWidth="15" stroke="rgba(2, 177, 255, 1)"></path>
            <path d="M460 147.33 L460 412.67" strokeWidth="15" stroke="rgba(0, 255, 255, 1)"></path>
            <path d="M480 127.66 L480 232.66" strokeWidth="15" stroke="rgba(255, 201, 2, 1)"></path>
            <path d="M480 255.16 L480 432.34" strokeWidth="15" stroke="rgba(255, 201, 2, 1)"></path>
            <path d="M500 219.14 L500 249.14" strokeWidth="15" stroke="rgba(255, 165, 0, 1)"></path>
            <path d="M500 271.64 L500 286.64" strokeWidth="15" stroke="rgba(2, 177, 255, 1)"></path>
            <path d="M500 309.14 L500 340.86" strokeWidth="15" stroke="rgba(0, 255, 255, 1)"></path>
            <path d="M520 213.22 L520 346.78" strokeWidth="15" stroke="rgba(0, 255, 255, 1)"></path>
            <path d="M540 207.67 L540 237.67" strokeWidth="15" stroke="rgba(255, 201, 2, 1)"></path>
            <path d="M540 260.16999999999996 L540 305.16999999999996" strokeWidth="15" stroke="rgba(2, 177, 255, 1)"></path>
            <path d="M540 327.66999999999996 L540 352.33" strokeWidth="15" stroke="rgba(255, 165, 0, 1)"></path>
            <path d="M560 131.82999999999998 L560 296.83" strokeWidth="15" stroke="rgba(0, 255, 255, 1)"></path>
            <path d="M560 319.33 L560 364.33" strokeWidth="15" stroke="rgba(255, 165, 0, 1)"></path>
            <path d="M560 386.83 L560 428.17" strokeWidth="15" stroke="rgba(2, 177, 255, 1)"></path>
            <path d="M580 164.81 L580 395.19" strokeWidth="15" stroke="rgba(255, 165, 0, 1)"></path>
            <path d="M600 227.8 L600 257.8" strokeWidth="15" stroke="rgba(255, 201, 2, 1)"></path>
            <path d="M600 280.3 L600 332.2" strokeWidth="15" stroke="rgba(2, 177, 255, 1)"></path>
            <path d="M620 211.94 L620 241.94" strokeWidth="15" stroke="rgba(255, 165, 0, 1)"></path>
            <path d="M620 264.44 L620 279.44" strokeWidth="15" stroke="rgba(2, 177, 255, 1)"></path>
            <path d="M620 301.94 L620 348.06" strokeWidth="15" stroke="rgba(255, 165, 0, 1)"></path>
            <path d="M640 132.94 L640 177.94" strokeWidth="15" stroke="rgba(2, 177, 255, 1)"></path>
            <path d="M640 200.44 L640 427.06" strokeWidth="15" stroke="rgba(255, 165, 0, 1)"></path>
            <path d="M660 203.41 L660 233.41" strokeWidth="15" stroke="rgba(0, 255, 255, 1)"></path>
            <path d="M660 255.91 L660 300.90999999999997" strokeWidth="15" stroke="rgba(255, 165, 0, 1)"></path>
            <path d="M660 323.40999999999997 L660 356.59" strokeWidth="15" stroke="rgba(255, 201, 2, 1)"></path>
            <path d="M680 212.17 L680 242.17" strokeWidth="15" stroke="rgba(255, 201, 2, 1)"></path>
            <path d="M680 264.66999999999996 L680 294.66999999999996" strokeWidth="15" stroke="rgba(0, 255, 255, 1)"></path>
            <path d="M680 317.16999999999996 L680 347.83" strokeWidth="15" stroke="rgba(0, 255, 255, 1)"></path>
            <path d="M700 122.22 L700 152.22" strokeWidth="15" stroke="rgba(0, 255, 255, 1)"></path>
            <path d="M700 174.72 L700 219.72" strokeWidth="15" stroke="rgba(0, 255, 255, 1)"></path>
            <path d="M700 242.22 L700 437.77" strokeWidth="15" stroke="rgba(2, 177, 255, 1)"></path>
            <path d="M720 143.69 L720 248.69" strokeWidth="15" stroke="rgba(255, 165, 0, 1)"></path>
            <path d="M720 271.19 L720 416.31" strokeWidth="15" stroke="rgba(255, 165, 0, 1)"></path>
            <path d="M740 254.78 L740 305.23" strokeWidth="15" stroke="rgba(0, 255, 255, 1)"></path>
            <path d="M760 178.86 L760 283.86" strokeWidth="15" stroke="rgba(2, 177, 255, 1)"></path>
            <path d="M760 306.36 L760 336.36" strokeWidth="15" stroke="rgba(2, 177, 255, 1)"></path>
            <path d="M760 358.86 L760 381.14" strokeWidth="15" stroke="rgba(0, 255, 255, 1)"></path>
            <path d="M780 146.44 L780 191.44" strokeWidth="15" stroke="rgba(255, 201, 2, 1)"></path>
            <path d="M780 213.94 L780 228.94" strokeWidth="15" stroke="rgba(255, 201, 2, 1)"></path>
            <path d="M780 251.44 L780 413.56" strokeWidth="15" stroke="rgba(2, 177, 255, 1)"></path>
            <path d="M800 225.44 L800 255.44" strokeWidth="15" stroke="rgba(0, 255, 255, 1)"></path>
            <path d="M800 277.94 L800 292.94" strokeWidth="15" stroke="rgba(255, 201, 2, 1)"></path>
            <path d="M800 315.44 L800 334.56" strokeWidth="15" stroke="rgba(0, 255, 255, 1)"></path>
            <path d="M820 148.94 L820 163.94" strokeWidth="15" stroke="rgba(255, 165, 0, 1)"></path>
            <path d="M820 186.44 L820 411.06" strokeWidth="15" stroke="rgba(255, 165, 0, 1)"></path>
            <path d="M840 244.94 L840 315.06" strokeWidth="15" stroke="rgba(255, 165, 0, 1)"></path>
            <path d="M860 227.63 L860 242.63" strokeWidth="15" stroke="rgba(0, 255, 255, 1)"></path>
            <path d="M860 265.13 L860 280.13" strokeWidth="15" stroke="rgba(0, 255, 255, 1)"></path>
            <path d="M860 302.63 L860 332.37" strokeWidth="15" stroke="rgba(255, 165, 0, 1)"></path>
            <path d="M880 175.55 L880 235.55" strokeWidth="15" stroke="rgba(255, 201, 2, 1)"></path>
            <path d="M880 258.05 L880 288.05" strokeWidth="15" stroke="rgba(255, 165, 0, 1)"></path>
            <path d="M880 310.55 L880 384.45" strokeWidth="15" stroke="rgba(0, 255, 255, 1)"></path>
            <path d="M900 119.72 L900 134.72" strokeWidth="15" stroke="rgba(0, 255, 255, 1)"></path>
            <path d="M900 157.22 L900 440.28" strokeWidth="15" stroke="rgba(255, 165, 0, 1)"></path>
            <path d="M920 134.17000000000002 L920 254.17000000000002" strokeWidth="15" stroke="rgba(255, 165, 0, 1)"></path>
            <path d="M920 276.67 L920 366.67" strokeWidth="15" stroke="rgba(2, 177, 255, 1)"></path>
            <path d="M920 389.17 L920 425.83" strokeWidth="15" stroke="rgba(0, 255, 255, 1)"></path>
            <path d="M940 143.06 L940 293.06" strokeWidth="15" stroke="rgba(255, 165, 0, 1)"></path>
            <path d="M940 315.56 L940 416.94" strokeWidth="15" stroke="rgba(255, 201, 2, 1)"></path>
            <path d="M960 181.82 L960 271.82" strokeWidth="15" stroke="rgba(2, 177, 255, 1)"></path>
            <path d="M960 294.32 L960 378.18" strokeWidth="15" stroke="rgba(0, 255, 255, 1)"></path>
            <path d="M980 114.49 L980 219.49" strokeWidth="15" stroke="rgba(255, 165, 0, 1)"></path>
            <path d="M980 241.99 L980 376.99" strokeWidth="15" stroke="rgba(255, 201, 2, 1)"></path>
            <path d="M980 399.49 L980 445.51" strokeWidth="15" stroke="rgba(255, 201, 2, 1)"></path>
            <path d="M1000 156.69 L1000 261.69" strokeWidth="15" stroke="rgba(255, 165, 0, 1)"></path>
            <path d="M1000 284.19 L1000 403.31" strokeWidth="15" stroke="rgba(255, 165, 0, 1)"></path>
            <path d="M1020 188.98 L1020 203.98" strokeWidth="15" stroke="rgba(2, 177, 255, 1)"></path>
            <path d="M1020 226.48 L1020 371.02" strokeWidth="15" stroke="rgba(255, 165, 0, 1)"></path>
            <path d="M1040 138.22 L1040 213.22" strokeWidth="15" stroke="rgba(0, 255, 255, 1)"></path>
            <path d="M1040 235.72 L1040 370.72" strokeWidth="15" stroke="rgba(2, 177, 255, 1)"></path>
            <path d="M1040 393.22 L1040 421.77" strokeWidth="15" stroke="rgba(255, 165, 0, 1)"></path>
            <path d="M1060 105.94 L1060 150.94" strokeWidth="15" stroke="rgba(2, 177, 255, 1)"></path>
            <path d="M1060 173.44 L1060 203.44" strokeWidth="15" stroke="rgba(255, 201, 2, 1)"></path>
            <path d="M1060 225.94 L1060 454.06" strokeWidth="15" stroke="rgba(0, 255, 255, 1)"></path>
            <path d="M1080 237.82 L1080 252.82" strokeWidth="15" stroke="rgba(0, 255, 255, 1)"></path>
            <path d="M1080 275.32 L1080 322.18" strokeWidth="15" stroke="rgba(2, 177, 255, 1)"></path>
            <path d="M1100 143.94 L1100 233.94" strokeWidth="15" stroke="rgba(2, 177, 255, 1)"></path>
            <path d="M1100 256.44 L1100 316.44" strokeWidth="15" stroke="rgba(255, 165, 0, 1)"></path>
            <path d="M1100 338.94 L1100 416.06" strokeWidth="15" stroke="rgba(255, 165, 0, 1)"></path>
            <path d="M1120 231.67 L1120 246.67" strokeWidth="15" stroke="rgba(255, 201, 2, 1)"></path>
            <path d="M1120 269.16999999999996 L1120 284.16999999999996" strokeWidth="15" stroke="rgba(0, 255, 255, 1)"></path>
            <path d="M1120 306.66999999999996 L1120 328.33" strokeWidth="15" stroke="rgba(0, 255, 255, 1)"></path>
            <path d="M1140 256.01 L1140 303.99" strokeWidth="15" stroke="rgba(0, 255, 255, 1)"></path>
            <path d="M1160 131.37 L1160 281.37" strokeWidth="15" stroke="rgba(255, 201, 2, 1)"></path>
            <path d="M1160 303.87 L1160 333.87" strokeWidth="15" stroke="rgba(255, 201, 2, 1)"></path>
            <path d="M1160 356.37 L1160 428.63" strokeWidth="15" stroke="rgba(2, 177, 255, 1)"></path>
            <path d="M1180 193.28 L1180 366.72" strokeWidth="15" stroke="rgba(2, 177, 255, 1)"></path>
        </g>
    </g>
    <defs>
        <mask id="SvgjsMask1021">
            <rect width="1440" height="560" fill="#ffffff"></rect>
        </mask>
    </defs>
</svg>